<svg width="14" height="14" viewBox="0 0 14 14" fill="none" xmlns="http://www.w3.org/2000/svg">
<path d="M10.6289 0.25C11.0242 0.249987 11.3657 0.249505 11.6465 0.272461C11.9429 0.296709 12.2379 0.35061 12.5215 0.495117C12.9439 0.710428 13.2888 1.05444 13.5049 1.47852C13.6493 1.762 13.7033 2.05653 13.7275 2.35254C13.7505 2.63318 13.75 2.97457 13.75 3.36914V10.6318C13.75 11.0263 13.7505 11.367 13.7275 11.6475C13.7033 11.9435 13.6493 12.238 13.5049 12.5215C13.289 12.9451 12.9443 13.2894 12.5215 13.5049C12.2379 13.6494 11.9426 13.7033 11.6465 13.7275C11.366 13.7505 11.0253 13.75 10.6309 13.75H7.11914C6.72457 13.75 6.38318 13.7505 6.10254 13.7275C5.80653 13.7033 5.512 13.6493 5.22852 13.5049C4.80456 13.2889 4.4605 12.9441 4.24512 12.5215C4.10059 12.2378 4.0467 11.9429 4.02246 11.6465C3.99951 11.3656 3.99999 11.0243 4 10.6289V10.5625C4 10.1483 4.33579 9.8125 4.75 9.8125C5.16421 9.8125 5.5 10.1483 5.5 10.5625V10.5996C5.5 11.032 5.50022 11.312 5.51758 11.5244C5.5342 11.7274 5.56313 11.8027 5.58203 11.8398C5.65422 11.9815 5.76885 12.0964 5.90918 12.168C5.94609 12.1868 6.0221 12.2158 6.22559 12.2324C6.4377 12.2497 6.71632 12.25 7.14746 12.25H10.6025C11.0339 12.25 11.3124 12.2497 11.5244 12.2324C11.7276 12.2158 11.8028 12.1868 11.8398 12.168C11.9812 12.096 12.0962 11.9813 12.168 11.8408C12.1868 11.8038 12.2158 11.7276 12.2324 11.5244C12.2497 11.3124 12.25 11.0338 12.25 10.6025V3.39746C12.25 2.96632 12.2497 2.6877 12.2324 2.47559C12.2158 2.2721 12.1868 2.19609 12.168 2.15918C12.0965 2.01901 11.9817 1.9043 11.8398 1.83203C11.8027 1.81311 11.7275 1.78421 11.5244 1.76758C11.3122 1.75023 11.0328 1.75 10.6006 1.75H7.15039C6.71798 1.75 6.43818 1.75021 6.22559 1.76758C6.02187 1.78423 5.9462 1.81317 5.90918 1.83203C5.76825 1.9039 5.6539 2.01825 5.58203 2.15918C5.56317 2.1962 5.53423 2.27188 5.51758 2.47559C5.50021 2.68818 5.5 2.96798 5.5 3.40039V3.43652C5.49996 3.8507 5.16419 4.18652 4.75 4.18652C4.33581 4.18652 4.00004 3.8507 4 3.43652V3.37109C3.99999 2.97578 3.99951 2.63447 4.02246 2.35352C4.04668 2.05711 4.1006 1.76223 4.24512 1.47852C4.46083 1.05515 4.80515 0.710832 5.22852 0.495117C5.51223 0.350597 5.80711 0.296682 6.10352 0.272461C6.38447 0.249513 6.72578 0.249987 7.12109 0.25H10.6289ZM6.46973 4.21973C6.76262 3.92684 7.23738 3.92684 7.53027 4.21973L9.78027 6.46973C10.0732 6.76262 10.0732 7.23738 9.78027 7.53027L7.53027 9.78027C7.23738 10.0732 6.76262 10.0732 6.46973 9.78027C6.17684 9.48738 6.17683 9.01262 6.46973 8.71973L7.43945 7.75H1C0.585786 7.75 0.25 7.41421 0.25 7C0.250002 6.58579 0.585788 6.25 1 6.25H7.43945L6.46973 5.28027C6.17684 4.98738 6.17683 4.51262 6.46973 4.21973Z" fill="#333333"/>
</svg>
