<svg width="31" height="31" viewBox="0 0 31 31" fill="none" xmlns="http://www.w3.org/2000/svg">
<g clip-path="url(#clip0_647_7528)">
<rect width="30.3524" height="30.3524" fill="#D3F4E0"/>
<path d="M24.5398 30.348C24.8815 30.3487 25.2224 30.3487 25.5641 30.3487C27.0881 30.3487 28.612 30.3465 30.1368 30.3524C30.3036 30.3524 30.3643 30.3063 30.3519 30.1366C30.3204 29.7181 30.327 29.2953 30.2706 28.8805C30.1016 27.6361 29.6985 26.4664 29.0466 25.391C28.0538 23.7537 26.7361 22.472 24.9297 21.761C23.6618 21.262 22.3683 21.1801 21.0821 21.6944C19.9773 22.1363 19.223 22.9073 18.9165 24.0873C18.7314 24.7991 18.7416 25.5256 18.7277 26.2469C18.7028 27.533 18.7204 28.819 18.7211 30.1051C18.7211 30.3473 18.7219 30.348 18.9618 30.348C20.8209 30.348 22.6807 30.348 24.5398 30.348ZM5.81518 30.348C7.6684 30.348 9.52235 30.348 11.3756 30.348C11.6272 30.348 11.6287 30.3473 11.6272 30.0993C11.6185 28.6369 11.617 27.1745 11.5943 25.7121C11.587 25.2578 11.5541 24.7984 11.4795 24.3507C11.2614 23.0383 10.472 22.1743 9.26116 21.6929C7.86813 21.1384 6.48974 21.2906 5.14281 21.8722C4.12731 22.3104 3.26106 22.9651 2.5148 23.7779C0.875214 25.5673 0.0177441 27.6705 0.000184985 30.1059C-0.00127827 30.3473 0.000184987 30.348 0.236501 30.348C2.0963 30.348 3.95538 30.348 5.81518 30.348ZM0.03384 0.018289C6.86361 3.70315 11.178 9.28276 12.9713 16.8127C12.9881 16.6313 12.9888 16.4528 12.9881 16.2743C12.9756 14.2515 12.9683 12.2287 12.9486 10.206C12.9383 9.16351 12.8344 8.12909 12.6654 7.09978C12.5169 6.19704 12.3047 5.31258 11.9982 4.45081C11.4348 2.86844 10.5891 1.44849 9.5282 0.150701C9.44187 0.0460882 9.35773 0 9.22165 0C6.2227 0.0036578 3.22375 0.00292624 0.224795 0.0036578C0.167728 0.0036578 0.111393 0.0124365 0.0331083 0.0190205L0.03384 0.018289ZM30.3094 0.0234099C30.245 0.0146312 30.1997 0.00292624 30.1536 0.00292624C27.1371 0.00219468 24.1198 0.00146312 21.1033 0.00804715C21.0163 0.00804715 20.9029 0.0651088 20.8465 0.133144C19.1038 2.2137 18.0466 4.60297 17.6464 7.28487C17.4539 8.57607 17.3749 9.87605 17.3647 11.1797C17.3501 12.9896 17.3603 14.7994 17.3603 16.6093C17.3603 16.6766 17.3603 16.7439 17.3603 16.8112C19.1725 9.28422 23.4826 3.70827 30.3094 0.0234099ZM19.084 18.3994C19.0979 18.4104 19.1118 18.4214 19.1257 18.4324C19.155 18.4148 19.1864 18.4002 19.2135 18.3797C20.5436 17.387 22.0266 16.7761 23.6772 16.5705C24.6956 16.4433 25.706 16.4725 26.7091 16.6883C28.0655 16.9802 29.1651 17.6854 30.0263 18.7689C30.1207 18.8874 30.2114 19.0096 30.3292 19.1625V8.97623C27.0668 9.6478 24.3203 11.1804 22.0749 13.6026C20.7697 15.0101 19.7747 16.6122 19.084 18.3994ZM11.2263 18.4331L11.2636 18.4038C10.8459 17.2875 10.2854 16.2428 9.60356 15.264C7.8696 12.7752 5.59862 10.9514 2.79062 9.80216C1.89803 9.43712 0.977643 9.16351 0.0243288 8.98574V19.1581C0.19992 18.932 0.340393 18.7338 0.499157 18.5509C1.57392 17.316 2.95304 16.6854 4.56482 16.5369C5.52765 16.4476 6.48535 16.4923 7.43501 16.6956C8.52953 16.9297 9.55161 17.338 10.4947 17.94C10.7427 18.098 10.9834 18.2692 11.2278 18.4338L11.2263 18.4331Z" fill="white"/>
<path d="M24.539 30.348C22.6799 30.348 20.8201 30.348 18.9611 30.348C18.7211 30.348 18.7203 30.3466 18.7203 30.1051C18.7203 28.8191 18.7021 27.5322 18.7269 26.2469C18.7408 25.5256 18.7306 24.7991 18.9157 24.0873C19.2222 22.9073 19.9766 22.1363 21.0813 21.6944C22.3675 21.1801 23.661 21.2621 24.929 21.761C26.7354 22.4721 28.053 23.7537 29.0458 25.391C29.6977 26.4664 30.1009 27.6354 30.2699 28.8805C30.3262 29.2953 30.3196 29.7181 30.3511 30.1366C30.3642 30.3063 30.3035 30.3531 30.136 30.3524C28.612 30.3466 27.088 30.3488 25.5633 30.3488C25.2216 30.3488 24.8807 30.3488 24.539 30.3488V30.348Z" fill="#00481D"/>
<path d="M24.539 30.348C22.6799 30.348 20.8201 30.348 18.9611 30.348C18.7211 30.348 18.7203 30.3466 18.7203 30.1051C18.7203 28.8191 18.7021 27.5322 18.7269 26.2469C18.7408 25.5256 18.7306 24.7991 18.9157 24.0873C19.2222 22.9073 19.9766 22.1363 21.0813 21.6944C22.3675 21.1801 23.661 21.2621 24.929 21.761C26.7354 22.4721 28.053 23.7537 29.0458 25.391C29.6977 26.4664 30.1009 27.6354 30.2699 28.8805C30.3262 29.2953 30.3196 29.7181 30.3511 30.1366C30.3642 30.3063 30.3035 30.3531 30.136 30.3524C28.612 30.3466 27.088 30.3488 25.5633 30.3488C25.2216 30.3488 24.8807 30.3488 24.539 30.3488V30.348Z" fill="black" fill-opacity="0.2"/>
<path d="M24.539 30.348C22.6799 30.348 20.8201 30.348 18.9611 30.348C18.7211 30.348 18.7203 30.3466 18.7203 30.1051C18.7203 28.8191 18.7021 27.5322 18.7269 26.2469C18.7408 25.5256 18.7306 24.7991 18.9157 24.0873C19.2222 22.9073 19.9766 22.1363 21.0813 21.6944C22.3675 21.1801 23.661 21.2621 24.929 21.761C26.7354 22.4721 28.053 23.7537 29.0458 25.391C29.6977 26.4664 30.1009 27.6354 30.2699 28.8805C30.3262 29.2953 30.3196 29.7181 30.3511 30.1366C30.3642 30.3063 30.3035 30.3531 30.136 30.3524C28.612 30.3466 27.088 30.3488 25.5633 30.3488C25.2216 30.3488 24.8807 30.3488 24.539 30.3488V30.348Z" fill="black" fill-opacity="0.2"/>
<path d="M24.539 30.348C22.6799 30.348 20.8201 30.348 18.9611 30.348C18.7211 30.348 18.7203 30.3466 18.7203 30.1051C18.7203 28.8191 18.7021 27.5322 18.7269 26.2469C18.7408 25.5256 18.7306 24.7991 18.9157 24.0873C19.2222 22.9073 19.9766 22.1363 21.0813 21.6944C22.3675 21.1801 23.661 21.2621 24.929 21.761C26.7354 22.4721 28.053 23.7537 29.0458 25.391C29.6977 26.4664 30.1009 27.6354 30.2699 28.8805C30.3262 29.2953 30.3196 29.7181 30.3511 30.1366C30.3642 30.3063 30.3035 30.3531 30.136 30.3524C28.612 30.3466 27.088 30.3488 25.5633 30.3488C25.2216 30.3488 24.8807 30.3488 24.539 30.3488V30.348Z" fill="black" fill-opacity="0.2"/>
<path d="M24.539 30.348C22.6799 30.348 20.8201 30.348 18.9611 30.348C18.7211 30.348 18.7203 30.3466 18.7203 30.1051C18.7203 28.8191 18.7021 27.5322 18.7269 26.2469C18.7408 25.5256 18.7306 24.7991 18.9157 24.0873C19.2222 22.9073 19.9766 22.1363 21.0813 21.6944C22.3675 21.1801 23.661 21.2621 24.929 21.761C26.7354 22.4721 28.053 23.7537 29.0458 25.391C29.6977 26.4664 30.1009 27.6354 30.2699 28.8805C30.3262 29.2953 30.3196 29.7181 30.3511 30.1366C30.3642 30.3063 30.3035 30.3531 30.136 30.3524C28.612 30.3466 27.088 30.3488 25.5633 30.3488C25.2216 30.3488 24.8807 30.3488 24.539 30.3488V30.348Z" fill="black" fill-opacity="0.2"/>
<path d="M24.539 30.348C22.6799 30.348 20.8201 30.348 18.9611 30.348C18.7211 30.348 18.7203 30.3466 18.7203 30.1051C18.7203 28.8191 18.7021 27.5322 18.7269 26.2469C18.7408 25.5256 18.7306 24.7991 18.9157 24.0873C19.2222 22.9073 19.9766 22.1363 21.0813 21.6944C22.3675 21.1801 23.661 21.2621 24.929 21.761C26.7354 22.4721 28.053 23.7537 29.0458 25.391C29.6977 26.4664 30.1009 27.6354 30.2699 28.8805C30.3262 29.2953 30.3196 29.7181 30.3511 30.1366C30.3642 30.3063 30.3035 30.3531 30.136 30.3524C28.612 30.3466 27.088 30.3488 25.5633 30.3488C25.2216 30.3488 24.8807 30.3488 24.539 30.3488V30.348Z" fill="black" fill-opacity="0.2"/>
<path d="M24.539 30.348C22.6799 30.348 20.8201 30.348 18.9611 30.348C18.7211 30.348 18.7203 30.3466 18.7203 30.1051C18.7203 28.8191 18.7021 27.5322 18.7269 26.2469C18.7408 25.5256 18.7306 24.7991 18.9157 24.0873C19.2222 22.9073 19.9766 22.1363 21.0813 21.6944C22.3675 21.1801 23.661 21.2621 24.929 21.761C26.7354 22.4721 28.053 23.7537 29.0458 25.391C29.6977 26.4664 30.1009 27.6354 30.2699 28.8805C30.3262 29.2953 30.3196 29.7181 30.3511 30.1366C30.3642 30.3063 30.3035 30.3531 30.136 30.3524C28.612 30.3466 27.088 30.3488 25.5633 30.3488C25.2216 30.3488 24.8807 30.3488 24.539 30.3488V30.348Z" fill="black" fill-opacity="0.2"/>
<path d="M24.539 30.348C22.6799 30.348 20.8201 30.348 18.9611 30.348C18.7211 30.348 18.7203 30.3466 18.7203 30.1051C18.7203 28.8191 18.7021 27.5322 18.7269 26.2469C18.7408 25.5256 18.7306 24.7991 18.9157 24.0873C19.2222 22.9073 19.9766 22.1363 21.0813 21.6944C22.3675 21.1801 23.661 21.2621 24.929 21.761C26.7354 22.4721 28.053 23.7537 29.0458 25.391C29.6977 26.4664 30.1009 27.6354 30.2699 28.8805C30.3262 29.2953 30.3196 29.7181 30.3511 30.1366C30.3642 30.3063 30.3035 30.3531 30.136 30.3524C28.612 30.3466 27.088 30.3488 25.5633 30.3488C25.2216 30.3488 24.8807 30.3488 24.539 30.3488V30.348Z" fill="black" fill-opacity="0.2"/>
<path d="M24.539 30.348C22.6799 30.348 20.8201 30.348 18.9611 30.348C18.7211 30.348 18.7203 30.3466 18.7203 30.1051C18.7203 28.8191 18.7021 27.5322 18.7269 26.2469C18.7408 25.5256 18.7306 24.7991 18.9157 24.0873C19.2222 22.9073 19.9766 22.1363 21.0813 21.6944C22.3675 21.1801 23.661 21.2621 24.929 21.761C26.7354 22.4721 28.053 23.7537 29.0458 25.391C29.6977 26.4664 30.1009 27.6354 30.2699 28.8805C30.3262 29.2953 30.3196 29.7181 30.3511 30.1366C30.3642 30.3063 30.3035 30.3531 30.136 30.3524C28.612 30.3466 27.088 30.3488 25.5633 30.3488C25.2216 30.3488 24.8807 30.3488 24.539 30.3488V30.348Z" fill="black" fill-opacity="0.2"/>
<path d="M24.539 30.348C22.6799 30.348 20.8201 30.348 18.9611 30.348C18.7211 30.348 18.7203 30.3466 18.7203 30.1051C18.7203 28.8191 18.7021 27.5322 18.7269 26.2469C18.7408 25.5256 18.7306 24.7991 18.9157 24.0873C19.2222 22.9073 19.9766 22.1363 21.0813 21.6944C22.3675 21.1801 23.661 21.2621 24.929 21.761C26.7354 22.4721 28.053 23.7537 29.0458 25.391C29.6977 26.4664 30.1009 27.6354 30.2699 28.8805C30.3262 29.2953 30.3196 29.7181 30.3511 30.1366C30.3642 30.3063 30.3035 30.3531 30.136 30.3524C28.612 30.3466 27.088 30.3488 25.5633 30.3488C25.2216 30.3488 24.8807 30.3488 24.539 30.3488V30.348Z" fill="black" fill-opacity="0.2"/>
<path d="M24.539 30.348C22.6799 30.348 20.8201 30.348 18.9611 30.348C18.7211 30.348 18.7203 30.3466 18.7203 30.1051C18.7203 28.8191 18.7021 27.5322 18.7269 26.2469C18.7408 25.5256 18.7306 24.7991 18.9157 24.0873C19.2222 22.9073 19.9766 22.1363 21.0813 21.6944C22.3675 21.1801 23.661 21.2621 24.929 21.761C26.7354 22.4721 28.053 23.7537 29.0458 25.391C29.6977 26.4664 30.1009 27.6354 30.2699 28.8805C30.3262 29.2953 30.3196 29.7181 30.3511 30.1366C30.3642 30.3063 30.3035 30.3531 30.136 30.3524C28.612 30.3466 27.088 30.3488 25.5633 30.3488C25.2216 30.3488 24.8807 30.3488 24.539 30.3488V30.348Z" fill="black" fill-opacity="0.2"/>
<path d="M5.81532 30.3491C3.95552 30.3491 2.09644 30.3491 0.236641 30.3491C0.000324884 30.3491 -0.00187001 30.3484 0.000324883 30.107C0.017884 27.6716 0.874623 25.5684 2.51567 23.779C3.2612 22.9655 4.12818 22.3115 5.14368 21.8732C6.49062 21.2917 7.86901 21.1395 9.26203 21.694C10.4729 22.1761 11.2616 23.0394 11.4803 24.3518C11.555 24.7995 11.5879 25.2589 11.5952 25.7132C11.6179 27.1756 11.6193 28.638 11.6281 30.1004C11.6296 30.3484 11.6281 30.3491 11.3764 30.3491C9.52322 30.3491 7.66927 30.3491 5.81605 30.3491H5.81532Z" fill="#00481D"/>
<path d="M5.81532 30.3491C3.95552 30.3491 2.09644 30.3491 0.236641 30.3491C0.000324884 30.3491 -0.00187001 30.3484 0.000324883 30.107C0.017884 27.6716 0.874623 25.5684 2.51567 23.779C3.2612 22.9655 4.12818 22.3115 5.14368 21.8732C6.49062 21.2917 7.86901 21.1395 9.26203 21.694C10.4729 22.1761 11.2616 23.0394 11.4803 24.3518C11.555 24.7995 11.5879 25.2589 11.5952 25.7132C11.6179 27.1756 11.6193 28.638 11.6281 30.1004C11.6296 30.3484 11.6281 30.3491 11.3764 30.3491C9.52322 30.3491 7.66927 30.3491 5.81605 30.3491H5.81532Z" fill="black" fill-opacity="0.2"/>
<path d="M5.81532 30.3491C3.95552 30.3491 2.09644 30.3491 0.236641 30.3491C0.000324884 30.3491 -0.00187001 30.3484 0.000324883 30.107C0.017884 27.6716 0.874623 25.5684 2.51567 23.779C3.2612 22.9655 4.12818 22.3115 5.14368 21.8732C6.49062 21.2917 7.86901 21.1395 9.26203 21.694C10.4729 22.1761 11.2616 23.0394 11.4803 24.3518C11.555 24.7995 11.5879 25.2589 11.5952 25.7132C11.6179 27.1756 11.6193 28.638 11.6281 30.1004C11.6296 30.3484 11.6281 30.3491 11.3764 30.3491C9.52322 30.3491 7.66927 30.3491 5.81605 30.3491H5.81532Z" fill="black" fill-opacity="0.2"/>
<path d="M5.81532 30.3491C3.95552 30.3491 2.09644 30.3491 0.236641 30.3491C0.000324884 30.3491 -0.00187001 30.3484 0.000324883 30.107C0.017884 27.6716 0.874623 25.5684 2.51567 23.779C3.2612 22.9655 4.12818 22.3115 5.14368 21.8732C6.49062 21.2917 7.86901 21.1395 9.26203 21.694C10.4729 22.1761 11.2616 23.0394 11.4803 24.3518C11.555 24.7995 11.5879 25.2589 11.5952 25.7132C11.6179 27.1756 11.6193 28.638 11.6281 30.1004C11.6296 30.3484 11.6281 30.3491 11.3764 30.3491C9.52322 30.3491 7.66927 30.3491 5.81605 30.3491H5.81532Z" fill="black" fill-opacity="0.2"/>
<path d="M5.81532 30.3491C3.95552 30.3491 2.09644 30.3491 0.236641 30.3491C0.000324884 30.3491 -0.00187001 30.3484 0.000324883 30.107C0.017884 27.6716 0.874623 25.5684 2.51567 23.779C3.2612 22.9655 4.12818 22.3115 5.14368 21.8732C6.49062 21.2917 7.86901 21.1395 9.26203 21.694C10.4729 22.1761 11.2616 23.0394 11.4803 24.3518C11.555 24.7995 11.5879 25.2589 11.5952 25.7132C11.6179 27.1756 11.6193 28.638 11.6281 30.1004C11.6296 30.3484 11.6281 30.3491 11.3764 30.3491C9.52322 30.3491 7.66927 30.3491 5.81605 30.3491H5.81532Z" fill="black" fill-opacity="0.2"/>
<path d="M5.81532 30.3491C3.95552 30.3491 2.09644 30.3491 0.236641 30.3491C0.000324884 30.3491 -0.00187001 30.3484 0.000324883 30.107C0.017884 27.6716 0.874623 25.5684 2.51567 23.779C3.2612 22.9655 4.12818 22.3115 5.14368 21.8732C6.49062 21.2917 7.86901 21.1395 9.26203 21.694C10.4729 22.1761 11.2616 23.0394 11.4803 24.3518C11.555 24.7995 11.5879 25.2589 11.5952 25.7132C11.6179 27.1756 11.6193 28.638 11.6281 30.1004C11.6296 30.3484 11.6281 30.3491 11.3764 30.3491C9.52322 30.3491 7.66927 30.3491 5.81605 30.3491H5.81532Z" fill="black" fill-opacity="0.2"/>
<path d="M5.81532 30.3491C3.95552 30.3491 2.09644 30.3491 0.236641 30.3491C0.000324884 30.3491 -0.00187001 30.3484 0.000324883 30.107C0.017884 27.6716 0.874623 25.5684 2.51567 23.779C3.2612 22.9655 4.12818 22.3115 5.14368 21.8732C6.49062 21.2917 7.86901 21.1395 9.26203 21.694C10.4729 22.1761 11.2616 23.0394 11.4803 24.3518C11.555 24.7995 11.5879 25.2589 11.5952 25.7132C11.6179 27.1756 11.6193 28.638 11.6281 30.1004C11.6296 30.3484 11.6281 30.3491 11.3764 30.3491C9.52322 30.3491 7.66927 30.3491 5.81605 30.3491H5.81532Z" fill="black" fill-opacity="0.2"/>
<path d="M5.81532 30.3491C3.95552 30.3491 2.09644 30.3491 0.236641 30.3491C0.000324884 30.3491 -0.00187001 30.3484 0.000324883 30.107C0.017884 27.6716 0.874623 25.5684 2.51567 23.779C3.2612 22.9655 4.12818 22.3115 5.14368 21.8732C6.49062 21.2917 7.86901 21.1395 9.26203 21.694C10.4729 22.1761 11.2616 23.0394 11.4803 24.3518C11.555 24.7995 11.5879 25.2589 11.5952 25.7132C11.6179 27.1756 11.6193 28.638 11.6281 30.1004C11.6296 30.3484 11.6281 30.3491 11.3764 30.3491C9.52322 30.3491 7.66927 30.3491 5.81605 30.3491H5.81532Z" fill="black" fill-opacity="0.2"/>
<path d="M5.81532 30.3491C3.95552 30.3491 2.09644 30.3491 0.236641 30.3491C0.000324884 30.3491 -0.00187001 30.3484 0.000324883 30.107C0.017884 27.6716 0.874623 25.5684 2.51567 23.779C3.2612 22.9655 4.12818 22.3115 5.14368 21.8732C6.49062 21.2917 7.86901 21.1395 9.26203 21.694C10.4729 22.1761 11.2616 23.0394 11.4803 24.3518C11.555 24.7995 11.5879 25.2589 11.5952 25.7132C11.6179 27.1756 11.6193 28.638 11.6281 30.1004C11.6296 30.3484 11.6281 30.3491 11.3764 30.3491C9.52322 30.3491 7.66927 30.3491 5.81605 30.3491H5.81532Z" fill="black" fill-opacity="0.2"/>
<path d="M5.81532 30.3491C3.95552 30.3491 2.09644 30.3491 0.236641 30.3491C0.000324884 30.3491 -0.00187001 30.3484 0.000324883 30.107C0.017884 27.6716 0.874623 25.5684 2.51567 23.779C3.2612 22.9655 4.12818 22.3115 5.14368 21.8732C6.49062 21.2917 7.86901 21.1395 9.26203 21.694C10.4729 22.1761 11.2616 23.0394 11.4803 24.3518C11.555 24.7995 11.5879 25.2589 11.5952 25.7132C11.6179 27.1756 11.6193 28.638 11.6281 30.1004C11.6296 30.3484 11.6281 30.3491 11.3764 30.3491C9.52322 30.3491 7.66927 30.3491 5.81605 30.3491H5.81532Z" fill="black" fill-opacity="0.2"/>
<path d="M5.81532 30.3491C3.95552 30.3491 2.09644 30.3491 0.236641 30.3491C0.000324884 30.3491 -0.00187001 30.3484 0.000324883 30.107C0.017884 27.6716 0.874623 25.5684 2.51567 23.779C3.2612 22.9655 4.12818 22.3115 5.14368 21.8732C6.49062 21.2917 7.86901 21.1395 9.26203 21.694C10.4729 22.1761 11.2616 23.0394 11.4803 24.3518C11.555 24.7995 11.5879 25.2589 11.5952 25.7132C11.6179 27.1756 11.6193 28.638 11.6281 30.1004C11.6296 30.3484 11.6281 30.3491 11.3764 30.3491C9.52322 30.3491 7.66927 30.3491 5.81605 30.3491H5.81532Z" fill="black" fill-opacity="0.2"/>
<path d="M0.0341797 0.018289C0.111732 0.0124365 0.1688 0.0036578 0.225135 0.0036578C3.22409 0.00292624 6.22304 0.0036578 9.22199 0C9.3588 0 9.44294 0.0460882 9.52854 0.150701C10.5894 1.44849 11.4352 2.86844 11.9985 4.45081C12.3051 5.31258 12.5172 6.19704 12.6658 7.09978C12.8348 8.12909 12.9387 9.16424 12.9489 10.206C12.9687 12.2287 12.976 14.2515 12.9884 16.2743C12.9891 16.4528 12.9884 16.6313 12.9716 16.8127C11.1784 9.28276 6.86321 3.70315 0.0341797 0.018289Z" fill="#00481D"/>
<path d="M0.0341797 0.018289C0.111732 0.0124365 0.1688 0.0036578 0.225135 0.0036578C3.22409 0.00292624 6.22304 0.0036578 9.22199 0C9.3588 0 9.44294 0.0460882 9.52854 0.150701C10.5894 1.44849 11.4352 2.86844 11.9985 4.45081C12.3051 5.31258 12.5172 6.19704 12.6658 7.09978C12.8348 8.12909 12.9387 9.16424 12.9489 10.206C12.9687 12.2287 12.976 14.2515 12.9884 16.2743C12.9891 16.4528 12.9884 16.6313 12.9716 16.8127C11.1784 9.28276 6.86321 3.70315 0.0341797 0.018289Z" fill="black" fill-opacity="0.2"/>
<path d="M0.0341797 0.018289C0.111732 0.0124365 0.1688 0.0036578 0.225135 0.0036578C3.22409 0.00292624 6.22304 0.0036578 9.22199 0C9.3588 0 9.44294 0.0460882 9.52854 0.150701C10.5894 1.44849 11.4352 2.86844 11.9985 4.45081C12.3051 5.31258 12.5172 6.19704 12.6658 7.09978C12.8348 8.12909 12.9387 9.16424 12.9489 10.206C12.9687 12.2287 12.976 14.2515 12.9884 16.2743C12.9891 16.4528 12.9884 16.6313 12.9716 16.8127C11.1784 9.28276 6.86321 3.70315 0.0341797 0.018289Z" fill="black" fill-opacity="0.2"/>
<path d="M0.0341797 0.018289C0.111732 0.0124365 0.1688 0.0036578 0.225135 0.0036578C3.22409 0.00292624 6.22304 0.0036578 9.22199 0C9.3588 0 9.44294 0.0460882 9.52854 0.150701C10.5894 1.44849 11.4352 2.86844 11.9985 4.45081C12.3051 5.31258 12.5172 6.19704 12.6658 7.09978C12.8348 8.12909 12.9387 9.16424 12.9489 10.206C12.9687 12.2287 12.976 14.2515 12.9884 16.2743C12.9891 16.4528 12.9884 16.6313 12.9716 16.8127C11.1784 9.28276 6.86321 3.70315 0.0341797 0.018289Z" fill="black" fill-opacity="0.2"/>
<path d="M0.0341797 0.018289C0.111732 0.0124365 0.1688 0.0036578 0.225135 0.0036578C3.22409 0.00292624 6.22304 0.0036578 9.22199 0C9.3588 0 9.44294 0.0460882 9.52854 0.150701C10.5894 1.44849 11.4352 2.86844 11.9985 4.45081C12.3051 5.31258 12.5172 6.19704 12.6658 7.09978C12.8348 8.12909 12.9387 9.16424 12.9489 10.206C12.9687 12.2287 12.976 14.2515 12.9884 16.2743C12.9891 16.4528 12.9884 16.6313 12.9716 16.8127C11.1784 9.28276 6.86321 3.70315 0.0341797 0.018289Z" fill="black" fill-opacity="0.2"/>
<path d="M0.0341797 0.018289C0.111732 0.0124365 0.1688 0.0036578 0.225135 0.0036578C3.22409 0.00292624 6.22304 0.0036578 9.22199 0C9.3588 0 9.44294 0.0460882 9.52854 0.150701C10.5894 1.44849 11.4352 2.86844 11.9985 4.45081C12.3051 5.31258 12.5172 6.19704 12.6658 7.09978C12.8348 8.12909 12.9387 9.16424 12.9489 10.206C12.9687 12.2287 12.976 14.2515 12.9884 16.2743C12.9891 16.4528 12.9884 16.6313 12.9716 16.8127C11.1784 9.28276 6.86321 3.70315 0.0341797 0.018289Z" fill="black" fill-opacity="0.2"/>
<path d="M0.0341797 0.018289C0.111732 0.0124365 0.1688 0.0036578 0.225135 0.0036578C3.22409 0.00292624 6.22304 0.0036578 9.22199 0C9.3588 0 9.44294 0.0460882 9.52854 0.150701C10.5894 1.44849 11.4352 2.86844 11.9985 4.45081C12.3051 5.31258 12.5172 6.19704 12.6658 7.09978C12.8348 8.12909 12.9387 9.16424 12.9489 10.206C12.9687 12.2287 12.976 14.2515 12.9884 16.2743C12.9891 16.4528 12.9884 16.6313 12.9716 16.8127C11.1784 9.28276 6.86321 3.70315 0.0341797 0.018289Z" fill="black" fill-opacity="0.2"/>
<path d="M0.0341797 0.018289C0.111732 0.0124365 0.1688 0.0036578 0.225135 0.0036578C3.22409 0.00292624 6.22304 0.0036578 9.22199 0C9.3588 0 9.44294 0.0460882 9.52854 0.150701C10.5894 1.44849 11.4352 2.86844 11.9985 4.45081C12.3051 5.31258 12.5172 6.19704 12.6658 7.09978C12.8348 8.12909 12.9387 9.16424 12.9489 10.206C12.9687 12.2287 12.976 14.2515 12.9884 16.2743C12.9891 16.4528 12.9884 16.6313 12.9716 16.8127C11.1784 9.28276 6.86321 3.70315 0.0341797 0.018289Z" fill="black" fill-opacity="0.2"/>
<path d="M0.0341797 0.018289C0.111732 0.0124365 0.1688 0.0036578 0.225135 0.0036578C3.22409 0.00292624 6.22304 0.0036578 9.22199 0C9.3588 0 9.44294 0.0460882 9.52854 0.150701C10.5894 1.44849 11.4352 2.86844 11.9985 4.45081C12.3051 5.31258 12.5172 6.19704 12.6658 7.09978C12.8348 8.12909 12.9387 9.16424 12.9489 10.206C12.9687 12.2287 12.976 14.2515 12.9884 16.2743C12.9891 16.4528 12.9884 16.6313 12.9716 16.8127C11.1784 9.28276 6.86321 3.70315 0.0341797 0.018289Z" fill="black" fill-opacity="0.2"/>
<path d="M0.0341797 0.018289C0.111732 0.0124365 0.1688 0.0036578 0.225135 0.0036578C3.22409 0.00292624 6.22304 0.0036578 9.22199 0C9.3588 0 9.44294 0.0460882 9.52854 0.150701C10.5894 1.44849 11.4352 2.86844 11.9985 4.45081C12.3051 5.31258 12.5172 6.19704 12.6658 7.09978C12.8348 8.12909 12.9387 9.16424 12.9489 10.206C12.9687 12.2287 12.976 14.2515 12.9884 16.2743C12.9891 16.4528 12.9884 16.6313 12.9716 16.8127C11.1784 9.28276 6.86321 3.70315 0.0341797 0.018289Z" fill="black" fill-opacity="0.2"/>
<path d="M0.0341797 0.018289C0.111732 0.0124365 0.1688 0.0036578 0.225135 0.0036578C3.22409 0.00292624 6.22304 0.0036578 9.22199 0C9.3588 0 9.44294 0.0460882 9.52854 0.150701C10.5894 1.44849 11.4352 2.86844 11.9985 4.45081C12.3051 5.31258 12.5172 6.19704 12.6658 7.09978C12.8348 8.12909 12.9387 9.16424 12.9489 10.206C12.9687 12.2287 12.976 14.2515 12.9884 16.2743C12.9891 16.4528 12.9884 16.6313 12.9716 16.8127C11.1784 9.28276 6.86321 3.70315 0.0341797 0.018289Z" fill="black" fill-opacity="0.2"/>
<path d="M30.3088 0.023876C23.482 3.70874 19.1719 9.28469 17.359 16.8117C17.359 16.7444 17.359 16.6771 17.359 16.6098C17.359 14.7999 17.3487 12.99 17.3633 11.1802C17.3736 9.87725 17.4526 8.57654 17.645 7.28534C18.0452 4.60344 19.1024 2.21417 20.8452 0.13361C20.9022 0.0655749 21.0149 0.00851328 21.102 0.00851328C24.1185 0.00192925 27.1357 0.00266081 30.1522 0.00339237C30.1976 0.00339237 30.2437 0.0150973 30.3081 0.023876H30.3088Z" fill="#00481D"/>
<path d="M30.3088 0.023876C23.482 3.70874 19.1719 9.28469 17.359 16.8117C17.359 16.7444 17.359 16.6771 17.359 16.6098C17.359 14.7999 17.3487 12.99 17.3633 11.1802C17.3736 9.87725 17.4526 8.57654 17.645 7.28534C18.0452 4.60344 19.1024 2.21417 20.8452 0.13361C20.9022 0.0655749 21.0149 0.00851328 21.102 0.00851328C24.1185 0.00192925 27.1357 0.00266081 30.1522 0.00339237C30.1976 0.00339237 30.2437 0.0150973 30.3081 0.023876H30.3088Z" fill="black" fill-opacity="0.2"/>
<path d="M30.3088 0.023876C23.482 3.70874 19.1719 9.28469 17.359 16.8117C17.359 16.7444 17.359 16.6771 17.359 16.6098C17.359 14.7999 17.3487 12.99 17.3633 11.1802C17.3736 9.87725 17.4526 8.57654 17.645 7.28534C18.0452 4.60344 19.1024 2.21417 20.8452 0.13361C20.9022 0.0655749 21.0149 0.00851328 21.102 0.00851328C24.1185 0.00192925 27.1357 0.00266081 30.1522 0.00339237C30.1976 0.00339237 30.2437 0.0150973 30.3081 0.023876H30.3088Z" fill="black" fill-opacity="0.2"/>
<path d="M30.3088 0.023876C23.482 3.70874 19.1719 9.28469 17.359 16.8117C17.359 16.7444 17.359 16.6771 17.359 16.6098C17.359 14.7999 17.3487 12.99 17.3633 11.1802C17.3736 9.87725 17.4526 8.57654 17.645 7.28534C18.0452 4.60344 19.1024 2.21417 20.8452 0.13361C20.9022 0.0655749 21.0149 0.00851328 21.102 0.00851328C24.1185 0.00192925 27.1357 0.00266081 30.1522 0.00339237C30.1976 0.00339237 30.2437 0.0150973 30.3081 0.023876H30.3088Z" fill="black" fill-opacity="0.2"/>
<path d="M30.3088 0.023876C23.482 3.70874 19.1719 9.28469 17.359 16.8117C17.359 16.7444 17.359 16.6771 17.359 16.6098C17.359 14.7999 17.3487 12.99 17.3633 11.1802C17.3736 9.87725 17.4526 8.57654 17.645 7.28534C18.0452 4.60344 19.1024 2.21417 20.8452 0.13361C20.9022 0.0655749 21.0149 0.00851328 21.102 0.00851328C24.1185 0.00192925 27.1357 0.00266081 30.1522 0.00339237C30.1976 0.00339237 30.2437 0.0150973 30.3081 0.023876H30.3088Z" fill="black" fill-opacity="0.2"/>
<path d="M30.3088 0.023876C23.482 3.70874 19.1719 9.28469 17.359 16.8117C17.359 16.7444 17.359 16.6771 17.359 16.6098C17.359 14.7999 17.3487 12.99 17.3633 11.1802C17.3736 9.87725 17.4526 8.57654 17.645 7.28534C18.0452 4.60344 19.1024 2.21417 20.8452 0.13361C20.9022 0.0655749 21.0149 0.00851328 21.102 0.00851328C24.1185 0.00192925 27.1357 0.00266081 30.1522 0.00339237C30.1976 0.00339237 30.2437 0.0150973 30.3081 0.023876H30.3088Z" fill="black" fill-opacity="0.2"/>
<path d="M30.3088 0.023876C23.482 3.70874 19.1719 9.28469 17.359 16.8117C17.359 16.7444 17.359 16.6771 17.359 16.6098C17.359 14.7999 17.3487 12.99 17.3633 11.1802C17.3736 9.87725 17.4526 8.57654 17.645 7.28534C18.0452 4.60344 19.1024 2.21417 20.8452 0.13361C20.9022 0.0655749 21.0149 0.00851328 21.102 0.00851328C24.1185 0.00192925 27.1357 0.00266081 30.1522 0.00339237C30.1976 0.00339237 30.2437 0.0150973 30.3081 0.023876H30.3088Z" fill="black" fill-opacity="0.2"/>
<path d="M30.3088 0.023876C23.482 3.70874 19.1719 9.28469 17.359 16.8117C17.359 16.7444 17.359 16.6771 17.359 16.6098C17.359 14.7999 17.3487 12.99 17.3633 11.1802C17.3736 9.87725 17.4526 8.57654 17.645 7.28534C18.0452 4.60344 19.1024 2.21417 20.8452 0.13361C20.9022 0.0655749 21.0149 0.00851328 21.102 0.00851328C24.1185 0.00192925 27.1357 0.00266081 30.1522 0.00339237C30.1976 0.00339237 30.2437 0.0150973 30.3081 0.023876H30.3088Z" fill="black" fill-opacity="0.2"/>
<path d="M30.3088 0.023876C23.482 3.70874 19.1719 9.28469 17.359 16.8117C17.359 16.7444 17.359 16.6771 17.359 16.6098C17.359 14.7999 17.3487 12.99 17.3633 11.1802C17.3736 9.87725 17.4526 8.57654 17.645 7.28534C18.0452 4.60344 19.1024 2.21417 20.8452 0.13361C20.9022 0.0655749 21.0149 0.00851328 21.102 0.00851328C24.1185 0.00192925 27.1357 0.00266081 30.1522 0.00339237C30.1976 0.00339237 30.2437 0.0150973 30.3081 0.023876H30.3088Z" fill="black" fill-opacity="0.2"/>
<path d="M30.3088 0.023876C23.482 3.70874 19.1719 9.28469 17.359 16.8117C17.359 16.7444 17.359 16.6771 17.359 16.6098C17.359 14.7999 17.3487 12.99 17.3633 11.1802C17.3736 9.87725 17.4526 8.57654 17.645 7.28534C18.0452 4.60344 19.1024 2.21417 20.8452 0.13361C20.9022 0.0655749 21.0149 0.00851328 21.102 0.00851328C24.1185 0.00192925 27.1357 0.00266081 30.1522 0.00339237C30.1976 0.00339237 30.2437 0.0150973 30.3081 0.023876H30.3088Z" fill="black" fill-opacity="0.2"/>
<path d="M30.3088 0.023876C23.482 3.70874 19.1719 9.28469 17.359 16.8117C17.359 16.7444 17.359 16.6771 17.359 16.6098C17.359 14.7999 17.3487 12.99 17.3633 11.1802C17.3736 9.87725 17.4526 8.57654 17.645 7.28534C18.0452 4.60344 19.1024 2.21417 20.8452 0.13361C20.9022 0.0655749 21.0149 0.00851328 21.102 0.00851328C24.1185 0.00192925 27.1357 0.00266081 30.1522 0.00339237C30.1976 0.00339237 30.2437 0.0150973 30.3081 0.023876H30.3088Z" fill="black" fill-opacity="0.2"/>
<path d="M19.084 18.3998C19.7746 16.6133 20.7697 15.0112 22.0749 13.6029C24.3203 11.1808 27.0668 9.64887 30.3291 8.97656V19.1613C30.2121 19.0084 30.1214 18.887 30.0262 18.7678C29.1651 17.6843 28.0655 16.9784 26.709 16.6872C25.706 16.4714 24.6956 16.4429 23.6772 16.5694C22.0266 16.7757 20.5436 17.3858 19.2135 18.3786C19.1864 18.399 19.155 18.4137 19.1257 18.4312C19.1118 18.4203 19.0979 18.4093 19.084 18.3983V18.3998Z" fill="#00481D"/>
<path d="M19.084 18.3998C19.7746 16.6133 20.7697 15.0112 22.0749 13.6029C24.3203 11.1808 27.0668 9.64887 30.3291 8.97656V19.1613C30.2121 19.0084 30.1214 18.887 30.0262 18.7678C29.1651 17.6843 28.0655 16.9784 26.709 16.6872C25.706 16.4714 24.6956 16.4429 23.6772 16.5694C22.0266 16.7757 20.5436 17.3858 19.2135 18.3786C19.1864 18.399 19.155 18.4137 19.1257 18.4312C19.1118 18.4203 19.0979 18.4093 19.084 18.3983V18.3998Z" fill="black" fill-opacity="0.2"/>
<path d="M19.084 18.3998C19.7746 16.6133 20.7697 15.0112 22.0749 13.6029C24.3203 11.1808 27.0668 9.64887 30.3291 8.97656V19.1613C30.2121 19.0084 30.1214 18.887 30.0262 18.7678C29.1651 17.6843 28.0655 16.9784 26.709 16.6872C25.706 16.4714 24.6956 16.4429 23.6772 16.5694C22.0266 16.7757 20.5436 17.3858 19.2135 18.3786C19.1864 18.399 19.155 18.4137 19.1257 18.4312C19.1118 18.4203 19.0979 18.4093 19.084 18.3983V18.3998Z" fill="black" fill-opacity="0.2"/>
<path d="M19.084 18.3998C19.7746 16.6133 20.7697 15.0112 22.0749 13.6029C24.3203 11.1808 27.0668 9.64887 30.3291 8.97656V19.1613C30.2121 19.0084 30.1214 18.887 30.0262 18.7678C29.1651 17.6843 28.0655 16.9784 26.709 16.6872C25.706 16.4714 24.6956 16.4429 23.6772 16.5694C22.0266 16.7757 20.5436 17.3858 19.2135 18.3786C19.1864 18.399 19.155 18.4137 19.1257 18.4312C19.1118 18.4203 19.0979 18.4093 19.084 18.3983V18.3998Z" fill="black" fill-opacity="0.2"/>
<path d="M19.084 18.3998C19.7746 16.6133 20.7697 15.0112 22.0749 13.6029C24.3203 11.1808 27.0668 9.64887 30.3291 8.97656V19.1613C30.2121 19.0084 30.1214 18.887 30.0262 18.7678C29.1651 17.6843 28.0655 16.9784 26.709 16.6872C25.706 16.4714 24.6956 16.4429 23.6772 16.5694C22.0266 16.7757 20.5436 17.3858 19.2135 18.3786C19.1864 18.399 19.155 18.4137 19.1257 18.4312C19.1118 18.4203 19.0979 18.4093 19.084 18.3983V18.3998Z" fill="black" fill-opacity="0.2"/>
<path d="M19.084 18.3998C19.7746 16.6133 20.7697 15.0112 22.0749 13.6029C24.3203 11.1808 27.0668 9.64887 30.3291 8.97656V19.1613C30.2121 19.0084 30.1214 18.887 30.0262 18.7678C29.1651 17.6843 28.0655 16.9784 26.709 16.6872C25.706 16.4714 24.6956 16.4429 23.6772 16.5694C22.0266 16.7757 20.5436 17.3858 19.2135 18.3786C19.1864 18.399 19.155 18.4137 19.1257 18.4312C19.1118 18.4203 19.0979 18.4093 19.084 18.3983V18.3998Z" fill="black" fill-opacity="0.2"/>
<path d="M19.084 18.3998C19.7746 16.6133 20.7697 15.0112 22.0749 13.6029C24.3203 11.1808 27.0668 9.64887 30.3291 8.97656V19.1613C30.2121 19.0084 30.1214 18.887 30.0262 18.7678C29.1651 17.6843 28.0655 16.9784 26.709 16.6872C25.706 16.4714 24.6956 16.4429 23.6772 16.5694C22.0266 16.7757 20.5436 17.3858 19.2135 18.3786C19.1864 18.399 19.155 18.4137 19.1257 18.4312C19.1118 18.4203 19.0979 18.4093 19.084 18.3983V18.3998Z" fill="black" fill-opacity="0.2"/>
<path d="M19.084 18.3998C19.7746 16.6133 20.7697 15.0112 22.0749 13.6029C24.3203 11.1808 27.0668 9.64887 30.3291 8.97656V19.1613C30.2121 19.0084 30.1214 18.887 30.0262 18.7678C29.1651 17.6843 28.0655 16.9784 26.709 16.6872C25.706 16.4714 24.6956 16.4429 23.6772 16.5694C22.0266 16.7757 20.5436 17.3858 19.2135 18.3786C19.1864 18.399 19.155 18.4137 19.1257 18.4312C19.1118 18.4203 19.0979 18.4093 19.084 18.3983V18.3998Z" fill="black" fill-opacity="0.2"/>
<path d="M19.084 18.3998C19.7746 16.6133 20.7697 15.0112 22.0749 13.6029C24.3203 11.1808 27.0668 9.64887 30.3291 8.97656V19.1613C30.2121 19.0084 30.1214 18.887 30.0262 18.7678C29.1651 17.6843 28.0655 16.9784 26.709 16.6872C25.706 16.4714 24.6956 16.4429 23.6772 16.5694C22.0266 16.7757 20.5436 17.3858 19.2135 18.3786C19.1864 18.399 19.155 18.4137 19.1257 18.4312C19.1118 18.4203 19.0979 18.4093 19.084 18.3983V18.3998Z" fill="black" fill-opacity="0.2"/>
<path d="M19.084 18.3998C19.7746 16.6133 20.7697 15.0112 22.0749 13.6029C24.3203 11.1808 27.0668 9.64887 30.3291 8.97656V19.1613C30.2121 19.0084 30.1214 18.887 30.0262 18.7678C29.1651 17.6843 28.0655 16.9784 26.709 16.6872C25.706 16.4714 24.6956 16.4429 23.6772 16.5694C22.0266 16.7757 20.5436 17.3858 19.2135 18.3786C19.1864 18.399 19.155 18.4137 19.1257 18.4312C19.1118 18.4203 19.0979 18.4093 19.084 18.3983V18.3998Z" fill="black" fill-opacity="0.2"/>
<path d="M19.084 18.3998C19.7746 16.6133 20.7697 15.0112 22.0749 13.6029C24.3203 11.1808 27.0668 9.64887 30.3291 8.97656V19.1613C30.2121 19.0084 30.1214 18.887 30.0262 18.7678C29.1651 17.6843 28.0655 16.9784 26.709 16.6872C25.706 16.4714 24.6956 16.4429 23.6772 16.5694C22.0266 16.7757 20.5436 17.3858 19.2135 18.3786C19.1864 18.399 19.155 18.4137 19.1257 18.4312C19.1118 18.4203 19.0979 18.4093 19.084 18.3983V18.3998Z" fill="black" fill-opacity="0.2"/>
<path d="M11.2259 18.4334C10.9815 18.2681 10.7416 18.0977 10.4928 17.9396C9.54975 17.3376 8.52693 16.9301 7.43314 16.6953C6.48422 16.4919 5.52651 16.448 4.56296 16.5365C2.95118 16.685 1.57205 17.3156 0.497289 18.5505C0.338525 18.7326 0.198052 18.9316 0.0224609 19.1577V8.98535C0.975775 9.16385 1.8969 9.43672 2.78875 9.80177C5.59675 10.9511 7.86846 12.7748 9.60169 15.2636C10.2836 16.2424 10.844 17.2864 11.2618 18.4034L11.2244 18.4327L11.2259 18.4334Z" fill="#00481D"/>
<path d="M11.2259 18.4334C10.9815 18.2681 10.7416 18.0977 10.4928 17.9396C9.54975 17.3376 8.52693 16.9301 7.43314 16.6953C6.48422 16.4919 5.52651 16.448 4.56296 16.5365C2.95118 16.685 1.57205 17.3156 0.497289 18.5505C0.338525 18.7326 0.198052 18.9316 0.0224609 19.1577V8.98535C0.975775 9.16385 1.8969 9.43672 2.78875 9.80177C5.59675 10.9511 7.86846 12.7748 9.60169 15.2636C10.2836 16.2424 10.844 17.2864 11.2618 18.4034L11.2244 18.4327L11.2259 18.4334Z" fill="black" fill-opacity="0.2"/>
<path d="M11.2259 18.4334C10.9815 18.2681 10.7416 18.0977 10.4928 17.9396C9.54975 17.3376 8.52693 16.9301 7.43314 16.6953C6.48422 16.4919 5.52651 16.448 4.56296 16.5365C2.95118 16.685 1.57205 17.3156 0.497289 18.5505C0.338525 18.7326 0.198052 18.9316 0.0224609 19.1577V8.98535C0.975775 9.16385 1.8969 9.43672 2.78875 9.80177C5.59675 10.9511 7.86846 12.7748 9.60169 15.2636C10.2836 16.2424 10.844 17.2864 11.2618 18.4034L11.2244 18.4327L11.2259 18.4334Z" fill="black" fill-opacity="0.2"/>
<path d="M11.2259 18.4334C10.9815 18.2681 10.7416 18.0977 10.4928 17.9396C9.54975 17.3376 8.52693 16.9301 7.43314 16.6953C6.48422 16.4919 5.52651 16.448 4.56296 16.5365C2.95118 16.685 1.57205 17.3156 0.497289 18.5505C0.338525 18.7326 0.198052 18.9316 0.0224609 19.1577V8.98535C0.975775 9.16385 1.8969 9.43672 2.78875 9.80177C5.59675 10.9511 7.86846 12.7748 9.60169 15.2636C10.2836 16.2424 10.844 17.2864 11.2618 18.4034L11.2244 18.4327L11.2259 18.4334Z" fill="black" fill-opacity="0.2"/>
<path d="M11.2259 18.4334C10.9815 18.2681 10.7416 18.0977 10.4928 17.9396C9.54975 17.3376 8.52693 16.9301 7.43314 16.6953C6.48422 16.4919 5.52651 16.448 4.56296 16.5365C2.95118 16.685 1.57205 17.3156 0.497289 18.5505C0.338525 18.7326 0.198052 18.9316 0.0224609 19.1577V8.98535C0.975775 9.16385 1.8969 9.43672 2.78875 9.80177C5.59675 10.9511 7.86846 12.7748 9.60169 15.2636C10.2836 16.2424 10.844 17.2864 11.2618 18.4034L11.2244 18.4327L11.2259 18.4334Z" fill="black" fill-opacity="0.2"/>
<path d="M11.2259 18.4334C10.9815 18.2681 10.7416 18.0977 10.4928 17.9396C9.54975 17.3376 8.52693 16.9301 7.43314 16.6953C6.48422 16.4919 5.52651 16.448 4.56296 16.5365C2.95118 16.685 1.57205 17.3156 0.497289 18.5505C0.338525 18.7326 0.198052 18.9316 0.0224609 19.1577V8.98535C0.975775 9.16385 1.8969 9.43672 2.78875 9.80177C5.59675 10.9511 7.86846 12.7748 9.60169 15.2636C10.2836 16.2424 10.844 17.2864 11.2618 18.4034L11.2244 18.4327L11.2259 18.4334Z" fill="black" fill-opacity="0.2"/>
<path d="M11.2259 18.4334C10.9815 18.2681 10.7416 18.0977 10.4928 17.9396C9.54975 17.3376 8.52693 16.9301 7.43314 16.6953C6.48422 16.4919 5.52651 16.448 4.56296 16.5365C2.95118 16.685 1.57205 17.3156 0.497289 18.5505C0.338525 18.7326 0.198052 18.9316 0.0224609 19.1577V8.98535C0.975775 9.16385 1.8969 9.43672 2.78875 9.80177C5.59675 10.9511 7.86846 12.7748 9.60169 15.2636C10.2836 16.2424 10.844 17.2864 11.2618 18.4034L11.2244 18.4327L11.2259 18.4334Z" fill="black" fill-opacity="0.2"/>
<path d="M11.2259 18.4334C10.9815 18.2681 10.7416 18.0977 10.4928 17.9396C9.54975 17.3376 8.52693 16.9301 7.43314 16.6953C6.48422 16.4919 5.52651 16.448 4.56296 16.5365C2.95118 16.685 1.57205 17.3156 0.497289 18.5505C0.338525 18.7326 0.198052 18.9316 0.0224609 19.1577V8.98535C0.975775 9.16385 1.8969 9.43672 2.78875 9.80177C5.59675 10.9511 7.86846 12.7748 9.60169 15.2636C10.2836 16.2424 10.844 17.2864 11.2618 18.4034L11.2244 18.4327L11.2259 18.4334Z" fill="black" fill-opacity="0.2"/>
<path d="M11.2259 18.4334C10.9815 18.2681 10.7416 18.0977 10.4928 17.9396C9.54975 17.3376 8.52693 16.9301 7.43314 16.6953C6.48422 16.4919 5.52651 16.448 4.56296 16.5365C2.95118 16.685 1.57205 17.3156 0.497289 18.5505C0.338525 18.7326 0.198052 18.9316 0.0224609 19.1577V8.98535C0.975775 9.16385 1.8969 9.43672 2.78875 9.80177C5.59675 10.9511 7.86846 12.7748 9.60169 15.2636C10.2836 16.2424 10.844 17.2864 11.2618 18.4034L11.2244 18.4327L11.2259 18.4334Z" fill="black" fill-opacity="0.2"/>
<path d="M11.2259 18.4334C10.9815 18.2681 10.7416 18.0977 10.4928 17.9396C9.54975 17.3376 8.52693 16.9301 7.43314 16.6953C6.48422 16.4919 5.52651 16.448 4.56296 16.5365C2.95118 16.685 1.57205 17.3156 0.497289 18.5505C0.338525 18.7326 0.198052 18.9316 0.0224609 19.1577V8.98535C0.975775 9.16385 1.8969 9.43672 2.78875 9.80177C5.59675 10.9511 7.86846 12.7748 9.60169 15.2636C10.2836 16.2424 10.844 17.2864 11.2618 18.4034L11.2244 18.4327L11.2259 18.4334Z" fill="black" fill-opacity="0.2"/>
<path d="M11.2259 18.4334C10.9815 18.2681 10.7416 18.0977 10.4928 17.9396C9.54975 17.3376 8.52693 16.9301 7.43314 16.6953C6.48422 16.4919 5.52651 16.448 4.56296 16.5365C2.95118 16.685 1.57205 17.3156 0.497289 18.5505C0.338525 18.7326 0.198052 18.9316 0.0224609 19.1577V8.98535C0.975775 9.16385 1.8969 9.43672 2.78875 9.80177C5.59675 10.9511 7.86846 12.7748 9.60169 15.2636C10.2836 16.2424 10.844 17.2864 11.2618 18.4034L11.2244 18.4327L11.2259 18.4334Z" fill="black" fill-opacity="0.2"/>
</g>
<defs>
<clipPath id="clip0_647_7528">
<rect width="30.3524" height="30.3524" fill="white"/>
</clipPath>
</defs>
</svg>
