<svg width="27" height="27" viewBox="0 0 27 27" fill="none" xmlns="http://www.w3.org/2000/svg">
<path d="M7.27246 7.16797H7.2834M7.27246 20.293H7.2834M5.08496 2.79297H22.585C23.7931 2.79297 24.7725 3.77235 24.7725 4.98047V9.35547C24.7725 10.5636 23.7931 11.543 22.585 11.543H5.08496C3.87684 11.543 2.89746 10.5636 2.89746 9.35547V4.98047C2.89746 3.77235 3.87684 2.79297 5.08496 2.79297ZM5.08496 15.918H22.585C23.7931 15.918 24.7725 16.8973 24.7725 18.1055V22.4805C24.7725 23.6886 23.7931 24.668 22.585 24.668H5.08496C3.87684 24.668 2.89746 23.6886 2.89746 22.4805V18.1055C2.89746 16.8973 3.87684 15.918 5.08496 15.918Z" stroke="#1873DE" stroke-width="2.1875" stroke-linecap="round" stroke-linejoin="round"/>
</svg>
