<svg width="15" height="17" viewBox="0 0 15 17" fill="none" xmlns="http://www.w3.org/2000/svg">
<path d="M9.27656 7.43332L7.2597 10.4681L5.89699 9.57097M13.3337 9.57097C13.3337 13.2168 10.7816 15.0397 7.74824 16.097C7.5894 16.1508 7.41686 16.1483 7.2597 16.0897C4.21908 15.0397 1.66699 13.2168 1.66699 9.57097V4.4668C1.66699 4.27341 1.74382 4.08795 1.88056 3.9512C2.01731 3.81446 2.20277 3.73763 2.39616 3.73763C3.85449 3.73763 5.67741 2.86263 6.94616 1.7543C7.10063 1.62232 7.29714 1.5498 7.50032 1.5498C7.7035 1.5498 7.90001 1.62232 8.05449 1.7543C9.33053 2.86992 11.1462 3.73763 12.6045 3.73763C12.7979 3.73763 12.9833 3.81446 13.1201 3.9512C13.2568 4.08795 13.3337 4.27341 13.3337 4.4668V9.57097Z" stroke="#FFF8F7" stroke-width="1.46434" stroke-linecap="round" stroke-linejoin="round"/>
</svg>
