<svg width="208" height="110" viewBox="0 0 208 110" fill="none" xmlns="http://www.w3.org/2000/svg">
<path d="M208 2.56152L204.25 4.72659L204.25 0.39646L208 2.56152ZM80.8318 55.5615L80.8318 55.9365L-3.57102e-06 55.9365L-3.54593e-06 55.5615L-3.52084e-06 55.1865L80.8318 55.1865L80.8318 55.5615ZM204.625 2.56152L204.625 2.93652L144.795 2.93652L144.795 2.56152L144.795 2.18652L204.625 2.18652L204.625 2.56152ZM127.21 11.0251L127.503 11.259L98.7098 47.3319L98.4167 47.098L98.1236 46.864L126.917 10.7912L127.21 11.0251ZM144.795 2.56152L144.795 2.93652C138.066 2.93652 131.702 5.99943 127.503 11.259L127.21 11.0251L126.917 10.7912C131.258 5.35326 137.837 2.18652 144.795 2.18652L144.795 2.56152ZM80.8318 55.5615L80.8318 55.1865C87.5615 55.1865 93.9254 52.1236 98.1236 46.864L98.4167 47.098L98.7098 47.3319C94.3692 52.7698 87.7896 55.9365 80.8318 55.9365L80.8318 55.5615Z" fill="#858D9D"/>
<path d="M208 107.279L204.25 105.114L204.25 109.444L208 107.279ZM80.9605 55.2793L80.9605 54.9043L-3.50411e-06 54.9043L-3.47903e-06 55.2793L-3.45394e-06 55.6543L80.9605 55.6543L80.9605 55.2793ZM204.625 107.279L204.625 106.904L144.667 106.904L144.667 107.279L144.667 107.654L204.625 107.654L204.625 107.279ZM127.213 98.9788L127.504 98.7421L98.7049 63.3432L98.414 63.5798L98.1231 63.8165L126.922 99.2154L127.213 98.9788ZM144.667 107.279L144.667 106.904C138.009 106.904 131.705 103.906 127.504 98.7421L127.213 98.9788L126.922 99.2154C131.266 104.555 137.783 107.654 144.667 107.654L144.667 107.279ZM80.9605 55.2793L80.9605 55.6543C87.618 55.6543 93.9216 58.6522 98.1231 63.8165L98.414 63.5798L98.7049 63.3432C94.361 58.0038 87.8437 54.9043 80.9605 54.9043L80.9605 55.2793Z" fill="#858D9D"/>
</svg>
