<svg width="11" height="16" viewBox="0 0 11 16" fill="none" xmlns="http://www.w3.org/2000/svg">
<path d="M7.0625 6.4339L3.9375 9.81932M3.9375 6.4339L7.0625 9.81932M10.5 8.80369C10.5 12.1891 8.3125 13.8818 5.7125 14.8636C5.57635 14.9136 5.42846 14.9112 5.29375 14.8568C2.6875 13.8818 0.5 12.1891 0.5 8.80369V4.06411C0.5 3.88453 0.565848 3.71231 0.683058 3.58534C0.800269 3.45836 0.95924 3.38702 1.125 3.38702C2.375 3.38702 3.9375 2.57452 5.025 1.54536C5.15741 1.4228 5.32584 1.35547 5.5 1.35547C5.67415 1.35547 5.84259 1.4228 5.975 1.54536C7.06875 2.58129 8.625 3.38702 9.875 3.38702C10.0408 3.38702 10.1997 3.45836 10.3169 3.58534C10.4342 3.71231 10.5 3.88453 10.5 4.06411V8.80369Z" stroke="#FFF8F7" stroke-width="0.739568" stroke-linecap="round" stroke-linejoin="round"/>
</svg>
