<svg width="13" height="17" viewBox="0 0 13 17" fill="none" xmlns="http://www.w3.org/2000/svg">
<path d="M8.236 6.82239L4.76378 10.584M4.76378 6.82239L8.236 10.584M12.0554 9.45549C12.0554 13.2171 9.62489 15.0979 6.736 16.1887C6.58472 16.2442 6.4204 16.2416 6.27072 16.1812C3.37489 15.0979 0.944336 13.2171 0.944336 9.45549V4.18929C0.944336 3.98976 1.0175 3.7984 1.14773 3.65732C1.27797 3.51623 1.4546 3.43697 1.63878 3.43697C3.02767 3.43697 4.76378 2.53419 5.97211 1.39067C6.11923 1.2545 6.30639 1.17969 6.49989 1.17969C6.69339 1.17969 6.88055 1.2545 7.02767 1.39067C8.24295 2.54172 9.97211 3.43697 11.361 3.43697C11.5452 3.43697 11.7218 3.51623 11.852 3.65732C11.9823 3.7984 12.0554 3.98976 12.0554 4.18929V9.45549Z" stroke="#FFF8F7" stroke-width="1.46" stroke-linecap="round" stroke-linejoin="round"/>
</svg>
