<svg width="14" height="14" viewBox="0 0 14 14" fill="none" xmlns="http://www.w3.org/2000/svg">
<mask id="mask0_615_7486" style="mask-type:alpha" maskUnits="userSpaceOnUse" x="0" y="0" width="14" height="14">
<rect x="0.0400391" y="0.910156" width="13" height="13" fill="#D9D9D9"/>
</mask>
<g mask="url(#mask0_615_7486)">
<path d="M0.582031 11.7438V10.2271C0.582031 9.9202 0.661024 9.63809 0.81901 9.38079C0.976997 9.1235 1.18689 8.92715 1.4487 8.79173C2.00842 8.51187 2.57717 8.30197 3.15495 8.16204C3.73273 8.02211 4.31953 7.95215 4.91536 7.95215C5.5112 7.95215 6.098 8.02211 6.67578 8.16204C7.25356 8.30197 7.82231 8.51187 8.38203 8.79173C8.64384 8.92715 8.85373 9.1235 9.01172 9.38079C9.1697 9.63809 9.2487 9.9202 9.2487 10.2271V11.7438H0.582031ZM10.332 11.7438V10.1188C10.332 9.72159 10.2214 9.34017 10.0003 8.97454C9.77908 8.60892 9.46536 8.2952 9.05911 8.0334C9.51953 8.08756 9.95286 8.1801 10.3591 8.311C10.7654 8.44191 11.1445 8.60215 11.4966 8.79173C11.8216 8.97229 12.0699 9.17316 12.2414 9.39434C12.4129 9.61552 12.4987 9.85701 12.4987 10.1188V11.7438H10.332ZM4.91536 7.41048C4.31953 7.41048 3.80946 7.19833 3.38516 6.77402C2.96085 6.34972 2.7487 5.83965 2.7487 5.24381C2.7487 4.64798 2.96085 4.13791 3.38516 3.71361C3.80946 3.2893 4.31953 3.07715 4.91536 3.07715C5.5112 3.07715 6.02127 3.2893 6.44557 3.71361C6.86988 4.13791 7.08203 4.64798 7.08203 5.24381C7.08203 5.83965 6.86988 6.34972 6.44557 6.77402C6.02127 7.19833 5.5112 7.41048 4.91536 7.41048ZM10.332 5.24381C10.332 5.83965 10.1199 6.34972 9.69557 6.77402C9.27127 7.19833 8.7612 7.41048 8.16536 7.41048C8.06606 7.41048 7.93967 7.3992 7.7862 7.37663C7.63273 7.35406 7.50634 7.32923 7.40703 7.30215C7.65078 7.01326 7.83811 6.69277 7.96901 6.34069C8.09991 5.98861 8.16536 5.62298 8.16536 5.24381C8.16536 4.86465 8.09991 4.49902 7.96901 4.14694C7.83811 3.79486 7.65078 3.47437 7.40703 3.18548C7.53342 3.14034 7.65981 3.111 7.7862 3.09746C7.91259 3.08392 8.03898 3.07715 8.16536 3.07715C8.7612 3.07715 9.27127 3.2893 9.69557 3.71361C10.1199 4.13791 10.332 4.64798 10.332 5.24381ZM1.66536 10.6605H8.16536V10.2271C8.16536 10.1278 8.14054 10.0376 8.09089 9.95631C8.04123 9.87506 7.97578 9.81187 7.89453 9.76673C7.40703 9.52298 6.91502 9.34017 6.41849 9.21829C5.92196 9.09642 5.42092 9.03548 4.91536 9.03548C4.40981 9.03548 3.90877 9.09642 3.41224 9.21829C2.91571 9.34017 2.4237 9.52298 1.9362 9.76673C1.85495 9.81187 1.7895 9.87506 1.73984 9.95631C1.69019 10.0376 1.66536 10.1278 1.66536 10.2271V10.6605ZM4.91536 6.32715C5.21328 6.32715 5.46832 6.22107 5.68047 6.00892C5.89262 5.79677 5.9987 5.54173 5.9987 5.24381C5.9987 4.9459 5.89262 4.69086 5.68047 4.47871C5.46832 4.26656 5.21328 4.16048 4.91536 4.16048C4.61745 4.16048 4.36241 4.26656 4.15026 4.47871C3.93811 4.69086 3.83203 4.9459 3.83203 5.24381C3.83203 5.54173 3.93811 5.79677 4.15026 6.00892C4.36241 6.22107 4.61745 6.32715 4.91536 6.32715Z" fill="white"/>
</g>
</svg>
