<svg width="26" height="27" viewBox="0 0 26 27" fill="none" xmlns="http://www.w3.org/2000/svg">
<path d="M2.16699 13.4596C2.16699 14.8962 2.73768 16.274 3.7535 17.2898C4.76932 18.3056 6.14707 18.8763 7.58366 18.8763C9.58535 18.9509 11.4994 19.7165 13.0003 21.043C14.5012 19.7165 16.4153 18.9509 18.417 18.8763C19.8536 18.8763 21.2313 18.3056 22.2472 17.2898C23.263 16.274 23.8337 14.8962 23.8337 13.4596V8.04297H18.417C16.4153 8.11753 14.5012 8.88315 13.0003 10.2096C11.4994 8.88315 9.58535 8.11753 7.58366 8.04297H2.16699V13.4596Z" stroke="#E6372B" stroke-width="1.625" stroke-linecap="round" stroke-linejoin="round"/>
<path d="M6.50033 12.3763C8.12533 12.3763 9.75033 12.918 9.75033 14.543C7.58366 14.543 6.50033 14.543 6.50033 12.3763Z" stroke="#E6372B" stroke-width="1.625" stroke-linecap="round" stroke-linejoin="round"/>
<path d="M19.5003 12.3763C17.8753 12.3763 16.2503 12.918 16.2503 14.543C18.417 14.543 19.5003 14.543 19.5003 12.3763Z" stroke="#E6372B" stroke-width="1.625" stroke-linecap="round" stroke-linejoin="round"/>
</svg>
